<?xml version="1.0" encoding="UTF-8"?>
<svg width="512px" height="512px" viewBox="0 0 512 512" version="1.1" xmlns="http://www.w3.org/2000/svg" xmlns:xlink="http://www.w3.org/1999/xlink">
    <!-- Generator: Sketch 51.3 (57544) - http://www.bohemiancoding.com/sketch -->
    <title>Brands/facebook-square</title>
    <desc>Created with Sketch.</desc>
    <defs>
        <path d="M480,80 L480,432 C480,458.5 458.5,480 432,480 L346.7,480 L346.7,302.8 L407.3,302.8 L416,235.2 L346.7,235.2 L346.7,192 C346.7,172.4 352.1,159.1 380.2,159.1 L416,159.1 L416,98.7 C409.8,97.9 388.6,96 363.8,96 C312.2,96 276.8,127.5 276.8,185.4 L276.8,235.3 L216,235.3 L216,302.9 L276.9,302.9 L276.9,480 L80,480 C53.5,480 32,458.5 32,432 L32,80 C32,53.5 53.5,32 80,32 L432,32 C458.5,32 480,53.5 480,80 Z" id="path-1"></path>
    </defs>
    <g id="Brands/facebook-square" stroke="none" stroke-width="1" fill="none" fill-rule="evenodd">
        <mask id="mask-2" fill="white">
            <use xlink:href="#path-1"></use>
        </mask>
        <use id="Mask" fill="#000000" fill-rule="nonzero" xlink:href="#path-1"></use>
        <g id="Color/White" mask="url(#mask-2)" fill="#FFFFFF">
            <rect id="White" x="0" y="0" width="512" height="512"></rect>
        </g>
    </g>
</svg>