<?xml version="1.0" encoding="UTF-8"?>
<svg width="512px" height="512px" viewBox="0 0 512 512" version="1.1" xmlns="http://www.w3.org/2000/svg" xmlns:xlink="http://www.w3.org/1999/xlink">
    <!-- Generator: Sketch 51.3 (57544) - http://www.bohemiancoding.com/sketch -->
    <title>Brands/instagram</title>
    <desc>Created with Sketch.</desc>
    <defs>
        <path d="M256.175,141.175 C192.575,141.175 141.275,192.475 141.275,256.075 C141.275,319.675 192.575,370.975 256.175,370.975 C319.775,370.975 371.075,319.675 371.075,256.075 C371.075,192.475 319.775,141.175 256.175,141.175 Z M256.175,330.775 C215.075,330.775 181.475,297.275 181.475,256.075 C181.475,214.875 214.975,181.375 256.175,181.375 C297.375,181.375 330.875,214.875 330.875,256.075 C330.875,297.275 297.275,330.775 256.175,330.775 Z M402.575,136.475 C402.575,151.375 390.575,163.275 375.775,163.275 C360.875,163.275 348.975,151.275 348.975,136.475 C348.975,121.675 360.975,109.675 375.775,109.675 C390.575,109.675 402.575,121.675 402.575,136.475 Z M478.675,163.675 C476.975,127.775 468.775,95.975 442.475,69.775 C416.275,43.575 384.475,35.375 348.575,33.575 C311.575,31.475 200.675,31.475 163.675,33.575 C127.875,35.275 96.075,43.475 69.775,69.675 C43.475,95.875 35.375,127.675 33.575,163.575 C31.475,200.575 31.475,311.475 33.575,348.475 C35.275,384.375 43.475,416.175 69.775,442.375 C96.075,468.575 127.775,476.775 163.675,478.575 C200.675,480.675 311.575,480.675 348.575,478.575 C384.475,476.875 416.275,468.675 442.475,442.375 C468.675,416.175 476.875,384.375 478.675,348.475 C480.775,311.475 480.775,200.675 478.675,163.675 Z M430.875,388.175 C423.075,407.775 407.975,422.875 388.275,430.775 C358.775,442.475 288.775,439.775 256.175,439.775 C223.575,439.775 153.475,442.375 124.075,430.775 C104.475,422.975 89.375,407.875 81.475,388.175 C69.775,358.675 72.475,288.675 72.475,256.075 C72.475,223.475 69.875,153.375 81.475,123.975 C89.275,104.375 104.375,89.275 124.075,81.375 C153.575,69.675 223.575,72.375 256.175,72.375 C288.775,72.375 358.875,69.775 388.275,81.375 C407.875,89.175 422.975,104.275 430.875,123.975 C442.575,153.475 439.875,223.475 439.875,256.075 C439.875,288.675 442.575,358.775 430.875,388.175 Z" id="path-1"></path>
    </defs>
    <g id="Brands/instagram" stroke="none" stroke-width="1" fill="none" fill-rule="evenodd">
        <mask id="mask-2" fill="white">
            <use xlink:href="#path-1"></use>
        </mask>
        <use id="Mask" fill="#000000" fill-rule="nonzero" xlink:href="#path-1"></use>
        <g id="Color/White" mask="url(#mask-2)" fill="#FFFFFF">
            <rect id="White" x="0" y="0" width="512" height="512"></rect>
        </g>
    </g>
</svg>