<?xml version="1.0" encoding="UTF-8"?>
<svg width="15px" height="15px" viewBox="0 0 15 15" version="1.1" xmlns="http://www.w3.org/2000/svg" xmlns:xlink="http://www.w3.org/1999/xlink">
    <!-- Generator: Sketch 51.3 (57544) - http://www.bohemiancoding.com/sketch -->
    <title>noun_marketing_1231137</title>
    <desc>Created with Sketch.</desc>
    <defs></defs>
    <g id="Page-1" stroke="none" stroke-width="1" fill="none" fill-rule="evenodd">
        <g id="noun_marketing_1231137" fill="#D92E2F" fill-rule="nonzero">
            <path d="M13.3528726,3.26505697 L13.3528726,0.52352546 C13.3526351,0.336728507 13.2532571,0.16417203 13.0920058,0.0705657143 C12.9307545,-0.0230406014 12.7319972,-0.0235515381 12.5702691,0.0692245084 C12.5249514,0.0954341786 7.93391041,2.71465389 4.82092669,2.71465389 L3.23480397,2.71465389 C1.70310565,2.71241147 0.380486783,3.78900215 0.0681743313,5.29223996 C-0.24413812,6.79547777 0.539758941,8.31188966 1.94498989,8.92285112 L3.76118755,14.2399196 C3.87779113,14.6809134 4.2717974,14.9910532 4.72680512,15 C4.77347539,14.9998577 4.82007515,14.9963541 4.86624448,14.9895161 C5.56269362,14.9391001 6.2385866,14.7305717 6.84279742,14.3797045 C6.97154248,14.3200316 7.08937987,14.239113 7.19139582,14.1403228 C7.21178692,14.1197741 7.23044278,14.0975654 7.24717156,14.073925 C7.56829998,13.631778 7.57250699,13.0336053 7.25762952,12.586963 C7.07112937,12.2864255 6.59354956,11.1332 6.50814295,9.38239401 C9.42242559,9.98521642 12.5266943,11.8129041 12.5598112,11.8356191 C12.7214205,11.9316752 12.9220123,11.9334314 13.0852705,11.8402195 C13.2485286,11.7470077 13.3493538,11.5731581 13.3493866,11.3848128 L13.3493866,7.93736752 C14.3186206,7.69395912 14.9988009,6.82128601 15,5.81962616 L15,5.38279833 C14.9992033,4.38215379 14.3207224,3.5098187 13.3528726,3.26505697 Z M1.05606396,5.95416914 C1.05700905,4.74784147 2.02972873,3.76880764 3.23306098,3.7630407 L4.2962861,3.7630407 L4.2962861,8.14529757 L3.23306098,8.14529757 C2.02972873,8.13953064 1.05700905,7.1604968 1.05606396,5.95416914 Z M6.41402138,13.4221779 L6.34778769,13.4571241 L6.29026895,13.490323 C6.16303054,13.5741939 5.68196474,13.8572584 4.76515095,13.9463713 L4.76515095,13.9376347 L4.76515095,13.911425 L3.14765437,9.18844245 L3.24003294,9.18844245 L4.82615567,9.18844245 C5.03008573,9.18844245 5.24098777,9.19892632 5.45363279,9.21814674 C5.5163805,11.2642483 6.07588094,12.6760759 6.38090454,13.1548392 L6.39659146,13.1775543 C6.44916205,13.248833 6.45595232,13.3441323 6.41402138,13.4221779 Z M12.3070774,3.19865914 L12.3070774,10.4954313 C10.9126837,9.75806595 7.94959734,8.34099644 5.33510933,8.164518 L5.33510933,3.74207297 C7.85373278,3.55860528 10.8900249,2.1310519 12.3070774,1.40067576 L12.3070774,3.19865914 Z M13.9629198,5.81962616 C13.9625117,6.24285104 13.7273961,6.63074305 13.3528726,6.8260775 L13.3528726,4.37984161 C13.722913,4.57695345 13.9542054,4.96272392 13.9542048,5.38279833 L13.9629198,5.81962616 Z" id="Shape"></path>
        </g>
    </g>
</svg>