<?xml version="1.0" encoding="UTF-8"?>
<svg width="512px" height="512px" viewBox="0 0 512 512" version="1.1" xmlns="http://www.w3.org/2000/svg" xmlns:xlink="http://www.w3.org/1999/xlink">
    <!-- Generator: Sketch 51.3 (57544) - http://www.bohemiancoding.com/sketch -->
    <title>Brands/pinterest</title>
    <desc>Created with Sketch.</desc>
    <defs>
        <path d="M504,256 C504,393 393,504 256,504 C230.4,504 205.8,500.1 182.6,492.9 C192.7,476.4 207.8,449.4 213.4,427.9 C216.4,416.3 228.8,368.9 228.8,368.9 C236.9,384.3 260.5,397.4 285.6,397.4 C360.4,397.4 414.3,328.6 414.3,243.1 C414.3,161.2 347.4,99.9 261.4,99.9 C154.4,99.9 97.5,171.7 97.5,250 C97.5,286.4 116.9,331.7 147.8,346.1 C152.5,348.3 155,347.3 156.1,342.8 C156.9,339.4 161.1,322.5 163,314.7 C163.6,312.2 163.3,310 161.3,307.6 C151.2,295.1 143,272.3 143,251 C143,196.3 184.4,143.4 255,143.4 C315.9,143.4 358.6,184.9 358.6,244.3 C358.6,311.4 324.7,357.9 280.6,357.9 C256.3,357.9 238,337.8 243.9,313.1 C250.9,283.6 264.4,251.8 264.4,230.5 C264.4,211.5 254.2,195.6 233,195.6 C208.1,195.6 188.1,221.3 188.1,255.8 C188.1,277.8 195.5,292.6 195.5,292.6 C195.5,292.6 171,396.4 166.5,415.8 C161.5,437.2 163.5,467.4 165.6,487 C73.4,450.9 8,361.1 8,256 C8,119 119,8 256,8 C393,8 504,119 504,256 Z" id="path-1"></path>
    </defs>
    <g id="Brands/pinterest" stroke="none" stroke-width="1" fill="none" fill-rule="evenodd">
        <mask id="mask-2" fill="white">
            <use xlink:href="#path-1"></use>
        </mask>
        <use id="Mask" fill="#000000" fill-rule="nonzero" xlink:href="#path-1"></use>
        <g id="Color/White" mask="url(#mask-2)" fill="#FFFFFF">
            <rect id="White" x="0" y="0" width="512" height="512"></rect>
        </g>
    </g>
</svg>