<?xml version="1.0" encoding="UTF-8"?>
<svg width="17px" height="18px" viewBox="0 0 17 18" version="1.1" xmlns="http://www.w3.org/2000/svg" xmlns:xlink="http://www.w3.org/1999/xlink">
    <!-- Generator: Sketch 51.3 (57544) - http://www.bohemiancoding.com/sketch -->
    <title>play</title>
    <desc>Created with Sketch.</desc>
    <defs></defs>
    <g id="Page-1" stroke="none" stroke-width="1" fill="none" fill-rule="evenodd">
        <path d="M8.32,15.68 C9.520006,15.68 10.6399948,15.3733364 11.68,14.76 C12.6933384,14.1733304 13.4933304,13.3733384 14.08,12.36 C14.6933364,11.3199948 15,10.200006 15,9 C15,7.799994 14.6933364,6.6800052 14.08,5.64 C13.4933304,4.6266616 12.6933384,3.8266696 11.68,3.24 C10.6399948,2.6266636 9.520006,2.32 8.32,2.32 C7.119994,2.32 6.0000052,2.6266636 4.96,3.24 C3.9466616,3.8266696 3.1466696,4.6266616 2.56,5.64 C1.9466636,6.6800052 1.64,7.799994 1.64,9 C1.64,10.200006 1.9466636,11.3199948 2.56,12.36 C3.1466696,13.3733384 3.9466616,14.1733304 4.96,14.76 C6.0000052,15.3733364 7.119994,15.68 8.32,15.68 Z M8.32,0.68 C9.8400076,0.68 11.2466602,1.0599962 12.54,1.82 C13.7933396,2.5400036 14.7799964,3.5266604 15.5,4.78 C16.2600038,6.0733398 16.64,7.4799924 16.64,9 C16.64,10.5200076 16.2600038,11.9266602 15.5,13.22 C14.7799964,14.4733396 13.7933396,15.4599964 12.54,16.18 C11.2466602,16.9400038 9.8400076,17.32 8.32,17.32 C6.7999924,17.32 5.3933398,16.9400038 4.1,16.18 C2.8466604,15.446663 1.8600036,14.4533396 1.14,13.2 C0.3799962,11.9066602 0,10.5066742 0,9 C0,7.4933258 0.3799962,6.0933398 1.14,4.8 C1.873337,3.5466604 2.8666604,2.553337 4.12,1.82 C5.4133398,1.0599962 6.8133258,0.68 8.32,0.68 Z M6.64,12.74 L6.64,5.24 L11.64,9 L6.64,12.74 Z" id="play" fill="#FFFFFF"></path>
    </g>
</svg>