<?xml version="1.0" encoding="UTF-8"?>
<svg width="15px" height="18px" viewBox="0 0 15 18" version="1.1" xmlns="http://www.w3.org/2000/svg" xmlns:xlink="http://www.w3.org/1999/xlink">
    <!-- Generator: Sketch 51.3 (57544) - http://www.bohemiancoding.com/sketch -->
    <title>Shape</title>
    <desc>Created with Sketch.</desc>
    <defs></defs>
    <g id="Page-1" stroke="none" stroke-width="1" fill="none" fill-rule="evenodd">
        <path d="M11.564823,10.2858 C10.4987888,10.2858 9.54496877,10.8336 8.91407604,11.6924 L6.67674021,10.2768 C6.80266939,9.877 6.87017598,9.4476 6.87017598,9 C6.87017598,8.5294 6.7946541,8.0794 6.65714727,7.6628 L8.87845251,6.2576 C9.50702971,7.1448 10.4781272,7.7144 11.5646448,7.7144 C13.4585698,7.7144 14.9998219,5.9852 14.9998219,3.8572 C15,1.7306 13.458748,0 11.564823,0 C9.67089795,0 8.1296459,1.7306 8.1296459,3.8572 C8.1296459,4.3046 8.19715249,4.734 8.32308167,5.134 L6.08574584,6.5496 C5.45485311,5.6908 4.50103308,5.143 3.43499893,5.143 C1.54125205,5.1428 0,6.8734 0,9 C0,11.1278 1.54125205,12.8572 3.43517705,12.8572 C4.52187285,12.8572 5.49279217,12.2876 6.12136937,11.4004 L8.34267461,12.8056 C8.2053459,13.2222 8.1296459,13.6722 8.1296459,14.1428 C8.12982402,16.2708 9.67107607,18 11.564823,18 C13.4585698,18 15,16.2708 15,14.1428 C15,12.0162 13.458748,10.2858 11.564823,10.2858 Z M11.564823,1.2858 C12.8278552,1.2858 13.8548816,2.4404 13.8548816,3.8572 C13.8548816,5.2754 12.8278552,6.4286 11.564823,6.4286 C10.9065001,6.4286 10.3121215,6.1148 9.89532619,5.6148 C9.63313701,5.301 9.44076994,4.9154 9.34458641,4.4872 C9.29881017,4.2854 9.27476429,4.0744 9.27476429,3.8572 C9.27476429,2.4402 10.3019688,1.2858 11.564823,1.2858 Z M3.43517705,11.5714 C2.17214477,11.5714 1.14511839,10.4182 1.14511839,9 C1.14511839,7.5832 2.17214477,6.4286 3.43517705,6.4286 C4.07176954,6.4286 4.64887073,6.7218 5.06459734,7.1948 C5.33373311,7.5008 5.53518417,7.8814 5.64062982,8.307 C5.69566818,8.5268 5.72541383,8.7596 5.72541383,9 C5.72541383,9.2172 5.70136794,9.4282 5.65559171,9.63 C5.55940817,10.0582 5.36704111,10.4438 5.10485192,10.7576 C4.68770038,11.2578 4.09349989,11.5714 3.43517705,11.5714 Z M11.564823,16.7142 C10.3017907,16.7142 9.27476429,15.561 9.27476429,14.1428 C9.27476429,13.9024 9.30450994,13.6696 9.360617,13.4486 C9.46588453,13.0244 9.66626689,12.6438 9.93540266,12.3378 C10.3511293,11.8646 10.9282305,11.5716 11.564823,11.5716 C12.8278552,11.5716 13.8548816,12.7262 13.8548816,14.143 C13.8550597,15.561 12.8278552,16.7142 11.564823,16.7142 Z" id="Shape" fill="#FFFFFF" fill-rule="nonzero"></path>
    </g>
</svg>